<svg aria-hidden="true" style="position: absolute; width: 0; height: 0; overflow: hidden;"
  version="1.1" xmlns="http://www.w3.org/2000/svg" xmlns:xlink="http://www.w3.org/1999/xlink">
  <defs>
    <symbol id="basket" viewBox="0 0 33 32" xmlns="http://www.w3.org/2000/svg">
      <path fill-rule="evenodd" clip-rule="evenodd"
        d="M19.5 26C19.5 24.3431 20.8431 23 22.5 23C24.1569 23 25.5 24.3431 25.5 26C25.5 27.6569 24.1569 29 22.5 29C20.8431 29 19.5 27.6569 19.5 26ZM23.5 26C23.5 25.4477 23.0523 25 22.5 25C21.9477 25 21.5 25.4477 21.5 26C21.5 26.5523 21.9477 27 22.5 27C23.0523 27 23.5 26.5523 23.5 26Z" />
      <path fill-rule="evenodd" clip-rule="evenodd"
        d="M9.5 26C9.5 24.3431 10.8431 23 12.5 23C14.1569 23 15.5 24.3431 15.5 26C15.5 27.6569 14.1569 29 12.5 29C10.8431 29 9.5 27.6569 9.5 26ZM13.5 26C13.5 25.4477 13.0523 25 12.5 25C11.9477 25 11.5 25.4477 11.5 26C11.5 26.5523 11.9477 27 12.5 27C13.0523 27 13.5 26.5523 13.5 26Z" />
      <path fill-rule="evenodd" clip-rule="evenodd"
        d="M8.50025 8H27.1128C28.2174 8 29.1128 8.89543 29.1128 10C29.1128 10.215 29.0782 10.4285 29.0102 10.6325L25.6769 20.6325C25.4046 21.4491 24.6403 22 23.7795 22H11.3474C10.3697 22 9.53532 21.2932 9.37459 20.3288L7.51385 9.1644C7.41226 8.55487 7.88231 8 8.50025 8ZM27.1128 10H9.68025L11.3474 20H23.7795L27.1128 10Z" />
      <path
        d="M7.5 3C7.93696 3 8.31823 3.28272 8.45075 3.68988L8.48058 3.80388L9.48058 8.80388C9.58889 9.34544 9.23768 9.87227 8.69612 9.98058C8.19324 10.0812 7.70307 9.78551 7.54889 9.30915L7.51942 9.19612L6.68 5H4.5C3.98716 5 3.56449 4.61396 3.50673 4.11662L3.5 4C3.5 3.48716 3.88604 3.06449 4.38338 3.00673L4.5 3H7.5Z" />
    </symbol>
    <symbol id="instagram" viewBox="0 0 24 24" xmlns="http://www.w3.org/2000/svg">
      <path
        d="M12.0001 6.86328C10.9845 6.86328 9.99176 7.16444 9.14733 7.72867C8.30291 8.2929 7.64475 9.09486 7.25611 10.0331C6.86746 10.9714 6.76577 12.0039 6.9639 12.9999C7.16203 13.996 7.65108 14.911 8.36921 15.6291C9.08734 16.3472 10.0023 16.8363 10.9984 17.0344C11.9944 17.2325 13.0269 17.1308 13.9652 16.7422C14.9034 16.3535 15.7054 15.6954 16.2696 14.851C16.8339 14.0065 17.135 13.0138 17.135 11.9982C17.135 11.3238 17.0022 10.6561 16.7442 10.0331C16.4861 9.41012 16.1079 8.84405 15.6311 8.36723C15.1543 7.8904 14.5882 7.51217 13.9652 7.25412C13.3422 6.99608 12.6745 6.86327 12.0001 6.86328ZM12.0001 15.3317C11.3408 15.3317 10.6963 15.1362 10.1481 14.7699C9.59987 14.4036 9.1726 13.883 8.92029 13.2738C8.66798 12.6647 8.60196 11.9944 8.73059 11.3478C8.85923 10.7011 9.17672 10.1071 9.64294 9.64092C10.1092 9.17471 10.7031 8.85721 11.3498 8.72859C11.9965 8.59997 12.6667 8.66599 13.2759 8.91831C13.885 9.17062 14.4056 9.5979 14.7719 10.1461C15.1382 10.6943 15.3337 11.3388 15.3337 11.9982C15.3338 12.436 15.2476 12.8695 15.0801 13.2739C14.9126 13.6784 14.667 14.0459 14.3575 14.3555C14.0479 14.6651 13.6804 14.9106 13.2759 15.0781C12.8714 15.2456 12.4379 15.3318 12.0001 15.3317Z" />
      <path
        d="M21.9395 7.87719C21.9231 7.04765 21.766 6.22691 21.475 5.44993C21.2235 4.78282 20.8299 4.17837 20.3215 3.67847C19.8224 3.16961 19.2181 2.77594 18.5509 2.525C17.774 2.23378 16.9532 2.07673 16.1236 2.06054C15.0574 2.012 14.7165 2 12.0008 2C9.28515 2 8.94402 2.01126 7.87718 2.06054C7.04765 2.07693 6.22691 2.23398 5.44993 2.525C4.78263 2.77617 4.17811 3.1698 3.67847 3.67847C3.16933 4.17771 2.77565 4.78235 2.52507 5.44993C2.23406 6.22692 2.07701 7.04765 2.06061 7.87719C2.01132 8.94341 2 9.28432 2 12C2 14.7157 2.01132 15.0565 2.06059 16.1228C2.07699 16.9523 2.23405 17.7731 2.52507 18.5501C2.77573 19.2176 3.1694 19.8222 3.67847 20.3215C4.17835 20.8299 4.7828 21.2234 5.44993 21.4749C6.22694 21.7659 7.04766 21.9229 7.87718 21.9394C8.94402 21.9879 9.28432 22 12 22C14.7157 22 15.0566 21.9887 16.1228 21.9394C16.9523 21.923 17.7731 21.766 18.5501 21.4749C19.2145 21.2181 19.8179 20.8252 20.3215 20.3215C20.8252 19.8178 21.2181 19.2145 21.475 18.5501C21.7663 17.7732 21.9234 16.9523 21.9395 16.1228C21.988 15.0558 21.9992 14.7157 21.9992 12C21.9992 9.28432 21.988 8.94341 21.9395 7.87719ZM20.1405 16.0413C20.1328 16.6754 20.0164 17.3035 19.7965 17.8983C19.63 18.3296 19.3751 18.7212 19.0482 19.048C18.7213 19.3748 18.3295 19.6295 17.8982 19.7957C17.3035 20.0162 16.6753 20.1326 16.0411 20.1397C14.987 20.1882 14.6705 20.1979 11.9999 20.1979C9.32943 20.1979 9.01371 20.1882 7.95994 20.1397C7.32576 20.1325 6.69756 20.0161 6.10286 19.7957C5.66851 19.6352 5.27552 19.3797 4.95262 19.0477C4.62021 18.7256 4.36456 18.3327 4.20462 17.8983C3.98414 17.3037 3.86778 16.6754 3.86062 16.0413C3.81212 14.9872 3.80247 14.6706 3.80247 12.0001C3.80247 9.32956 3.81296 9.01384 3.86062 7.95887C3.86861 7.32479 3.98495 6.69674 4.20462 6.10187C4.36513 5.66751 4.6207 5.27452 4.95262 4.95163C5.27495 4.61903 5.66811 4.36336 6.10286 4.20363C6.69754 3.98318 7.32575 3.86681 7.95994 3.85963C9.01401 3.81114 9.33062 3.80148 11.9999 3.80148C14.6693 3.80148 14.9862 3.81197 16.0411 3.85963C16.6752 3.86762 17.3033 3.98396 17.8982 4.20363C18.3297 4.36988 18.7215 4.6247 19.0484 4.95164C19.3754 5.27859 19.6302 5.67043 19.7965 6.10188C20.0169 6.69654 20.1333 7.32472 20.1405 7.95888C20.189 9.01388 20.1986 9.32962 20.1986 12.0001C20.1986 14.6705 20.189 14.9863 20.1405 16.0413H20.1405Z" />
      <path
        d="M17.3387 5.46094H17.3382C17.0201 5.461 16.7149 5.58744 16.49 5.81246C16.265 6.03749 16.1386 6.34265 16.1387 6.66084C16.1387 6.97902 16.2651 7.28417 16.4901 7.50915C16.7151 7.73413 17.0203 7.86052 17.3385 7.86052C17.6566 7.86052 17.9618 7.73413 18.1868 7.50915C18.4118 7.28417 18.5382 6.97902 18.5383 6.66084C18.5383 6.34265 18.4119 6.03749 18.187 5.81246C17.962 5.58744 17.6569 5.461 17.3387 5.46094Z" />
    </symbol>
    <symbol id="telegram" viewBox="0 0 24 24" fill="none" xmlns="http://www.w3.org/2000/svg">
      <path
        d="M8.24914 12.6456L16.6789 20.0637C16.7764 20.1496 16.8946 20.2086 17.0218 20.235C17.149 20.2615 17.2809 20.2544 17.4045 20.2145C17.5282 20.1746 17.6394 20.1033 17.7272 20.0076C17.815 19.9118 17.8764 19.7949 17.9054 19.6682L21.4317 4.28081C21.4622 4.14777 21.4558 4.00893 21.4132 3.87926C21.3706 3.74959 21.2934 3.63399 21.19 3.54493C21.0866 3.45588 20.9608 3.39673 20.8262 3.37387C20.6917 3.35102 20.5534 3.36531 20.4264 3.41522L3.1242 10.2125C2.97341 10.2718 2.84585 10.3782 2.76062 10.516C2.67538 10.6538 2.63706 10.8155 2.65137 10.9768C2.66569 11.1382 2.73187 11.2906 2.84002 11.4112C2.94818 11.5319 3.09248 11.6142 3.25135 11.646L8.24914 12.6456ZM8.24914 12.6456L8.24914 18.7498C8.24914 18.8981 8.29313 19.0431 8.37554 19.1665C8.45795 19.2898 8.57509 19.3859 8.71213 19.4427C8.84917 19.4995 8.99997 19.5143 9.14546 19.4854C9.29095 19.4564 9.42458 19.385 9.52947 19.2801L12.4592 16.3504M8.24914 12.6456L21.0097 3.42964"
        stroke-width="1.5" stroke-linecap="round" stroke-linejoin="round" />
    </symbol>
    <symbol id="close" viewBox="0 0 32 32" xmlns="http://www.w3.org/2000/svg">
      <path fill-rule="evenodd" clip-rule="evenodd"
        d="M3 16C3 8.8203 8.8203 3 16 3C23.1797 3 29 8.8203 29 16C29 23.1797 23.1797 29 16 29C8.8203 29 3 23.1797 3 16ZM27 16C27 9.92487 22.0751 5 16 5C9.92487 5 5 9.92487 5 16C5 22.0751 9.92487 27 16 27C22.0751 27 27 22.0751 27 16Z" />
      <path
        d="M11.2929 11.2929C11.6534 10.9324 12.2206 10.9047 12.6129 11.2097L12.7071 11.2929L20.7071 19.2929C21.0976 19.6834 21.0976 20.3166 20.7071 20.7071C20.3466 21.0676 19.7794 21.0953 19.3871 20.7903L19.2929 20.7071L11.2929 12.7071C10.9024 12.3166 10.9024 11.6834 11.2929 11.2929Z" />
      <path
        d="M19.2929 11.2929C19.6834 10.9024 20.3166 10.9024 20.7071 11.2929C21.0676 11.6534 21.0953 12.2206 20.7903 12.6129L20.7071 12.7071L12.7071 20.7071C12.3166 21.0976 11.6834 21.0976 11.2929 20.7071C10.9324 20.3466 10.9047 19.7794 11.2097 19.3871L11.2929 19.2929L19.2929 11.2929Z" />
    </symbol>
    <symbol id="mail" viewBox="0 0 24 24" xmlns="http://www.w3.org/2000/svg">
      <path
        d="M2 6C2 4.89543 2.89543 4 4 4H20C21.1046 4 22 4.89543 22 6V18C22 19.1046 21.1046 20 20 20H4C2.89543 20 2 19.1046 2 18V6ZM5.51859 6L12 11.6712L18.4814 6H5.51859ZM20 7.32877L12.6585 13.7526C12.2815 14.0825 11.7185 14.0825 11.3415 13.7526L4 7.32877V18H20V7.32877Z" />
    </symbol>
    <symbol id="arrow-down" viewBox="0 0 24 24" xmlns="http://www.w3.org/2000/svg">
      <path fill-rule="evenodd" clip-rule="evenodd"
        d="M5.29289 8.29289C5.68342 7.90237 6.31658 7.90237 6.70711 8.29289L12.5 14.0858L18.2929 8.29289C18.6834 7.90237 19.3166 7.90237 19.7071 8.29289C20.0976 8.68342 20.0976 9.31658 19.7071 9.70711L13.2071 16.2071C13.0196 16.3946 12.7652 16.5 12.5 16.5C12.2348 16.5 11.9804 16.3946 11.7929 16.2071L5.29289 9.70711C4.90237 9.31658 4.90237 8.68342 5.29289 8.29289Z" />
    </symbol>
    <symbol id="edit" viewBox="0 0 24 24" xmlns="http://www.w3.org/2000/svg">
      <path fill-rule="evenodd" clip-rule="evenodd"
        d="M3.96967 15.2197L15.2197 3.96967C15.5126 3.67678 15.9874 3.67678 16.2803 3.96967L20.0303 7.71967C20.3232 8.01256 20.3232 8.48744 20.0303 8.78033L8.78033 20.0303C8.63968 20.171 8.44891 20.25 8.25 20.25H4.5C4.08579 20.25 3.75 19.9142 3.75 19.5V15.75C3.75 15.5511 3.82902 15.3603 3.96967 15.2197ZM18.4387 8.25L15.75 5.56125L5.25 16.0605V18.75H7.938L18.4387 8.25Z" />
      <path d="M6.52941 13.7188L10.2794 17.4687L9.21875 18.5294L5.46875 14.7794L6.52941 13.7188Z" />
      <path d="M14.0294 6.21875L17.7794 9.96875L16.7187 11.0294L12.9688 7.27941L14.0294 6.21875Z" />
    </symbol>
  </defs>
</svg>